<?xml version="1.0" standalone="no"?><!DOCTYPE svg PUBLIC "-//W3C//DTD SVG 1.1//EN" "http://www.w3.org/Graphics/SVG/1.1/DTD/svg11.dtd"><svg t="1684309041008" class="icon" viewBox="0 0 1024 1024" version="1.1" xmlns="http://www.w3.org/2000/svg" p-id="1616" xmlns:xlink="http://www.w3.org/1999/xlink" width="200" height="200"><path d="M927.931 313.84c0.182-10.627-3.771-21.312-11.881-29.422l-57.441-57.441c-15.859-15.863-41.579-15.863-57.441 0-15.863 15.861-15.863 41.579 0 57.441l47.722 47.724v318.401h-39.53V393.599c0-21.832-17.7-39.53-39.53-39.53h-79.06V215.715c0-32.748-26.548-59.295-59.297-59.295H315.237c-32.747 0-59.293 26.546-59.293 59.295v537.039c-23.028 8.141-39.532 30.091-39.532 55.908 0 32.746 26.548 59.295 59.295 59.295h395.298c32.75 0 59.295-26.548 59.295-59.295 0-25.816-16.5-47.766-39.528-55.907V433.129H730.3v256.944c0 21.832 17.699 39.53 39.532 39.53h118.587c21.832 0 39.53-17.698 39.53-39.53V314.539c0-0.234-0.014-0.466-0.018-0.699z m-355.75 435.527h-197.65v-0.002H572.18v0.002z m0-296.473h-197.65V275.01H572.18v177.884z m-384.128-33.852l-84.242 79.85c-7.752 7.351-7.752 19.267 0 26.617l84.242 79.852c7.754 7.349 20.324 7.349 28.076 0v-186.32c-7.751-7.349-20.322-7.349-28.076 0.001z" fill="#e6e6e6" p-id="1617" data-spm-anchor-id="a313x.7781069.0.i1" class="selected"></path><path d="M275.707 749.367c32.748 0 59.297 26.546 59.297 59.295 0 32.747-26.548 59.295-59.297 59.295-32.747 0-59.295-26.548-59.295-59.295 0-32.748 26.548-59.295 59.295-59.295zM671.005 749.367c32.75 0 59.295 26.546 59.295 59.295 0 32.747-26.544 59.295-59.295 59.295-32.746 0-59.293-26.548-59.293-59.295 0-32.748 26.547-59.295 59.293-59.295zM888.419 275.01c21.832 0 39.53 17.698 39.53 39.53s-17.698 39.53-39.53 39.53c-21.83 0-39.528-17.697-39.528-39.53 0-21.833 17.698-39.53 39.528-39.53z" fill="#e6e6e6" p-id="1618"></path></svg>