<?xml version="1.0" standalone="no"?><!DOCTYPE svg PUBLIC "-//W3C//DTD SVG 1.1//EN" "http://www.w3.org/Graphics/SVG/1.1/DTD/svg11.dtd"><svg t="1684313405727" class="icon" viewBox="0 0 1024 1024" version="1.1" xmlns="http://www.w3.org/2000/svg" p-id="2015" xmlns:xlink="http://www.w3.org/1999/xlink" width="200" height="200"><path d="M906.24 514.194286c-1.462857-4.388571-4.388571-7.314286-8.777143-7.314286s-7.314286 2.925714-8.777143 7.314286c-1.462857 16.091429-4.388571 29.257143-7.314285 42.422857-1.462857 4.388571-2.925714 10.24-7.314286 19.017143-2.925714 7.314286-5.851429 14.628571-5.851429 21.942857 0 8.777143 1.462857 16.091429 7.314286 23.405714s13.165714 10.24 21.942857 10.24 16.091429-2.925714 21.942857-10.24c5.851429-7.314286 8.777143-14.628571 8.777143-23.405714 0-7.314286-2.925714-14.628571-5.851428-21.942857-4.388571-8.777143-7.314286-14.628571-7.314286-19.017143-5.851429-13.165714-7.314286-27.794286-8.777143-42.422857m-10.24-112.64c-5.851429-5.851429-16.091429-7.314286-32.182857-2.925715l-291.108572 84.845715-38.034285-35.108572h-93.622857v-43.885714h48.274285v-42.422857h-138.971428v42.422857h48.274285v43.885714h-93.622857v-32.182857l-172.617143-65.828571-35.108571 130.194285 165.302857 62.902858v128.731428h375.954286l171.154286-204.8c7.314286-10.24 21.942857-16.091429 42.422857-21.942857 13.165714-1.462857 21.942857-1.462857 26.331428 2.925714l17.554286 14.628572 26.331429-32.182857-26.331429-29.257143m-153.6 80.457143c1.462857 1.462857 0 4.388571-2.925714 8.777142l-119.954286 138.971429h-311.588571v-134.582857h213.577142l42.422858 39.497143 171.154285-54.125715c2.925714-1.462857 5.851429-1.462857 7.314286 1.462858m-479.817143-33.645715v48.274286l-112.64-42.422857 13.165714-43.885714 99.474286 38.034285z" fill="#e6e6e6" p-id="2016"></path></svg>