<?xml version="1.0" standalone="no"?><!DOCTYPE svg PUBLIC "-//W3C//DTD SVG 1.1//EN" "http://www.w3.org/Graphics/SVG/1.1/DTD/svg11.dtd"><svg t="1684312911636" class="icon" viewBox="0 0 1024 1024" version="1.1" xmlns="http://www.w3.org/2000/svg" p-id="1771" xmlns:xlink="http://www.w3.org/1999/xlink" width="200" height="200"><path d="M460.966 303.913c0-24.8 20.104-44.904 44.903-44.904 24.8 0 44.904 20.104 44.904 44.904v217.074a65.506 65.506 0 0 1 26.218 52.46c0 36.195-29.318 65.544-65.491 65.544s-65.49-29.349-65.49-65.545c0-15.46 5.389-30.096 14.956-41.695V303.913z m25.547 244.265a35.427 35.427 0 0 0-10.522 25.268c0 19.645 15.901 35.563 35.509 35.563s35.51-15.918 35.51-35.563c0-13.133-7.159-24.99-18.452-31.201l-7.766-4.272v-234.06c0-8.241-6.681-14.922-14.923-14.922-8.24 0-14.922 6.68-14.922 14.922V543.78l-4.434 4.398z" fill="#e6e6e6" p-id="1772"></path><path d="M521 348.99h30c8.28 0 14.99-6.71 14.99-14.99 0-8.28-6.71-14.99-14.99-14.99h-30c-8.28 0-14.99 6.71-14.99 14.99 0 8.28 6.71 14.99 14.99 14.99zM521 408.99h30c8.28 0 14.99-6.71 14.99-14.99 0-8.28-6.71-14.99-14.99-14.99h-30c-8.28 0-14.99 6.71-14.99 14.99 0 8.28 6.71 14.99 14.99 14.99zM521 468.99h30c8.28 0 14.99-6.71 14.99-14.99 0-8.28-6.71-14.99-14.99-14.99h-30c-8.28 0-14.99 6.71-14.99 14.99 0 8.28 6.71 14.99 14.99 14.99zM196.272 532.906c40.708 34.729 85.106 34.729 128.276 0.318 31.84-25.379 55.55-25.379 77.414-1.58 5.602 6.096 15.085 6.498 21.182 0.897 6.096-5.601 6.498-15.085 0.897-21.181-33.259-36.202-74.746-36.202-118.18-1.58-32.104 25.588-60.508 25.588-90.13 0.317-6.298-5.373-15.76-4.623-21.134 1.675-5.373 6.299-4.623 15.76 1.675 21.134zM294.137 613.29c40.687 35.548 85.192 35.548 128.343 0.323 6.413-5.235 7.368-14.679 2.133-21.092-5.236-6.414-14.68-7.369-21.093-2.134-31.983 26.11-60.145 26.11-89.657 0.324-6.234-5.447-15.705-4.809-21.152 1.426-5.447 6.235-4.809 15.705 1.426 21.152zM827.73 510.094c-40.707-34.729-85.105-34.729-128.275-0.318-31.84 25.379-55.55 25.379-77.414 1.58-5.601-6.096-15.085-6.498-21.181-0.897-6.097 5.601-6.499 15.084-0.898 21.181 33.26 36.202 74.746 36.202 118.18 1.58 32.104-25.589 60.508-25.589 90.13-0.317 6.299 5.373 15.76 4.623 21.134-1.675 5.373-6.299 4.623-15.76-1.675-21.134zM699.044 606.867c-31.878 25.92-55.5 25.92-77.404 1.6-5.54-6.153-15.019-6.648-21.17-1.108-6.153 5.54-6.648 15.02-1.108 21.171 33.333 37.012 75.045 37.012 118.597 1.6 6.423-5.224 7.396-14.665 2.173-21.089-5.223-6.424-14.665-7.397-21.088-2.174zM549.044 681.867c-31.878 25.92-55.5 25.92-77.404 1.6-5.54-6.153-15.019-6.648-21.17-1.108-6.153 5.54-6.648 15.02-1.108 21.171 33.333 37.012 75.045 37.012 118.597 1.6 6.423-5.224 7.396-14.665 2.173-21.089-5.223-6.424-14.665-7.397-21.088-2.174z" fill="#e6e6e6" p-id="1773"></path></svg>